<svg id="Layer_1" data-name="Layer 1" xmlns="http://www.w3.org/2000/svg" viewBox="0 0 140.34 24.45"><defs><style>.cls-1{fill:#392f2c}</style></defs><title>ivy-logo</title><path class="cls-1" d="M0 24.24V.2h4.69v24H0zM18.6 24.24h-3.51L7.16.2H12l4.83 15.67L21.68.2h4.9zM40.59 14.38v9.86h-4.66v-9.86L28.7.2h5.1l4.49 9.69L42.72.2h5.1zM60.2 24.24V.2H76v4.19H64.89V10H73v4.19h-8.11V20H76v4.19H60.2zM103.62 24.24V.2h15.84v4.19h-11.15V10h8.15v4.19h-8.15V20h11.14v4.19h-15.83zM131.49 24.45a8.85 8.85 0 0 1-6.49-2.64c-2.43-2.43-2.36-5.44-2.36-9.59s-.06-7.15 2.36-9.59A8.86 8.86 0 0 1 131.49 0c4.49 0 8 2.57 8.85 7.6h-4.76a4 4 0 0 0-4.05-3.41 3.88 3.88 0 0 0-3 1.25c-.91 1-1.18 2.16-1.18 6.79s.26 5.77 1.17 6.77a3.88 3.88 0 0 0 3 1.25 4 4 0 0 0 4.05-3.41h4.76c-.83 5.04-4.33 7.61-8.84 7.61zM99.9 24.25h-5.36l-4.65-7.89-4.64 7.89h-5.37l7.34-12.41L80.36.2h5.33l4.21 7.12L94.1.2h5.3l-6.84 11.62 7.34 12.43z"/></svg>